<svg width="82" height="82" viewBox="0 0 82 82" fill="none" xmlns="http://www.w3.org/2000/svg">
<circle cx="41" cy="41" r="39.5" fill="#3D85C6" stroke="#FDB623" stroke-width="3"/>
<g clip-path="url(#clip0_813_1524)">
<path d="M16 26.9375C16 20.8969 20.8969 16 26.9375 16C27.3519 16 27.7493 16.1646 28.0424 16.4576C28.3354 16.7507 28.5 17.1481 28.5 17.5625C28.5 17.9769 28.3354 18.3743 28.0424 18.6674C27.7493 18.9604 27.3519 19.125 26.9375 19.125C22.6228 19.125 19.125 22.6228 19.125 26.9375C19.125 27.3519 18.9604 27.7493 18.6674 28.0424C18.3743 28.3354 17.9769 28.5 17.5625 28.5C17.1481 28.5 16.7507 28.3354 16.4576 28.0424C16.1646 27.7493 16 27.3519 16 26.9375ZM53.5 17.5625C53.5 17.1481 53.6646 16.7507 53.9576 16.4576C54.2507 16.1646 54.6481 16 55.0625 16C61.1031 16 66 20.8969 66 26.9375C66 27.3519 65.8354 27.7493 65.5424 28.0424C65.2493 28.3354 64.8519 28.5 64.4375 28.5C64.0231 28.5 63.6257 28.3354 63.3326 28.0424C63.0396 27.7493 62.875 27.3519 62.875 26.9375C62.875 22.6228 59.3772 19.125 55.0625 19.125C54.6481 19.125 54.2507 18.9604 53.9576 18.6674C53.6646 18.3743 53.5 17.9769 53.5 17.5625ZM17.5625 53.5C17.9769 53.5 18.3743 53.6646 18.6674 53.9576C18.9604 54.2507 19.125 54.6481 19.125 55.0625C19.125 59.3772 22.6228 62.875 26.9375 62.875C27.3519 62.875 27.7493 63.0396 28.0424 63.3326C28.3354 63.6257 28.5 64.0231 28.5 64.4375C28.5 64.8519 28.3354 65.2493 28.0424 65.5424C27.7493 65.8354 27.3519 66 26.9375 66C20.8969 66 16 61.1031 16 55.0625C16 54.6481 16.1646 54.2507 16.4576 53.9576C16.7507 53.6646 17.1481 53.5 17.5625 53.5ZM64.4375 53.5C64.8519 53.5 65.2493 53.6646 65.5424 53.9576C65.8354 54.2507 66 54.6481 66 55.0625C66 61.1031 61.1031 66 55.0625 66C54.6481 66 54.2507 65.8354 53.9576 65.5424C53.6646 65.2493 53.5 64.8519 53.5 64.4375C53.5 64.0231 53.6646 63.6257 53.9576 63.3326C54.2507 63.0396 54.6481 62.875 55.0625 62.875C59.3772 62.875 62.875 59.3772 62.875 55.0625C62.875 54.6481 63.0396 54.2507 63.3326 53.9576C63.6257 53.6646 64.0231 53.5 64.4375 53.5Z" fill="#FDB623"/>
<path fill-rule="evenodd" clip-rule="evenodd" d="M20.8773 40.8742V52.8221H21.7289H22.5805V40.8742V28.9264H21.7289H20.8773V40.8742ZM24.9459 39.0948V49.2632H26.176H27.406V39.0948V28.9264H26.176H24.9459V39.0948ZM29.7715 39.0948V49.2632H30.6231H31.4746V39.0948V28.9264H30.6231H29.7715V39.0948ZM32.9886 39.0948V49.2632H34.2659H35.5433V39.0948V28.9264H34.2659H32.9886V39.0948ZM37.0572 39.0948V49.2632H37.9087H38.7603V39.0948V28.9264H37.9087H37.0572V39.0948ZM40.2742 40.8742V52.8221H41.1258H41.9774V40.8742V28.9264H41.1258H40.2742V40.8742ZM44.3428 39.0948V49.2632H45.1944H46.046V39.0948V28.9264H45.1944H44.3428V39.0948ZM47.5599 39.0948V49.2632H48.7899H50.02V39.0948V28.9264H48.7899H47.5599V39.0948ZM52.3854 39.0948V49.2632H53.237H54.0886V39.0948V28.9264H53.237H52.3854V39.0948ZM55.6025 39.0948V49.2632H56.8799H58.1572V39.0948V28.9264H56.8799H55.6025V39.0948ZM59.6711 40.8742V52.8221H60.5227H61.3743V40.8742V28.9264H60.5227H59.6711V40.8742ZM24.0944 51.7205V52.8221H24.9459H25.7975V51.7205V50.6189H24.9459H24.0944V51.7205ZM27.3114 50.6189C27.3114 50.6189 27.3114 51.0108 27.3114 51.7823V52.8221H28.163H29.0146V51.7205V50.6189L28.2221 50.6206C27.5987 50.6218 27.3114 50.6189 27.3114 50.6189ZM30.6231 51.7205V52.8221H31.4746H32.3262V51.7205V50.6189H31.4746H30.6231V51.7205ZM33.8401 51.7205V52.8221H34.6917H35.5433V51.7205V50.6189H34.6917H33.8401V51.7205ZM37.0572 51.7205V52.8221H37.9087H38.7603V51.7205V50.6189H37.9087H37.0572V51.7205ZM43.4913 51.7205V52.8221H44.3428H45.1944V51.7205V50.6189H44.3428H43.4913V51.7205ZM46.7083 51.7205V52.8221H47.5599H48.4114V51.7205V50.6189H47.5599H46.7083V51.7205ZM49.9254 51.7205V52.8221H50.7769H51.6285V51.7205V50.6189H50.7769H49.9254V51.7205ZM53.237 51.7205V52.8221H54.0886H54.9402V51.7811C54.9402 50.9353 54.9275 50.7286 54.8726 50.6795C54.8194 50.6319 54.6374 50.6189 54.021 50.6189H53.237V51.7205ZM56.4541 51.7205V52.8221H57.3056H58.1572V51.7205V50.6189H57.3056H56.4541V51.7205Z" fill="white"/>
<path d="M20.5 41H61.5" stroke="#FDB623" stroke-width="5" stroke-linecap="round" stroke-linejoin="round"/>
</g>
<defs>
<clipPath id="clip0_813_1524">
<rect width="50" height="50" fill="white" transform="translate(16 16)"/>
</clipPath>
</defs>
</svg>
